<svg width="242" height="98" viewBox="0 0 242 98" fill="none" xmlns="http://www.w3.org/2000/svg">
<path d="M80.3755 34L81.2491 34.3652L84.2195 36.1913L88.7625 39.2957L91.7329 41.3043L95.0527 43.4957L98.0231 45.5043L101.343 47.6957L104.313 49.7043L107.808 52.0783L110.254 53.7217L114.448 56.4609L116.894 58.1043L120.039 60.113L120.563 60.4783L121.612 60.2957L124.232 58.6522L126.679 57.0087L132.619 53.1739L140.133 48.0609L142.754 46.4174L146.074 44.2261L150.092 41.487L152.713 39.6609L155.334 38.0174L159.004 35.6435L161.45 34H161.625V75.4522L163.896 75.8174L169.487 77.0957L172.807 78.0087L178.748 79.4696L188.358 82.0261L193.251 83.1217L196.57 84.0348L195.871 83.1217L194.474 81.8435L191.329 78.5565L189.931 77.2783L187.484 74.9043L185.912 74.1739L179.796 72.5304L176.477 71.8V71.2522L178.399 69.6087L181.544 67.2348L184.864 64.6783L187.31 62.8522L189.581 61.0261L192.202 59.0174L194.124 57.5565L195.173 57.1913L196.745 58.287L199.191 60.2957L201.987 62.6696L204.433 64.6783L206.705 66.687L208.627 68.3304L210.374 69.7913L213.17 72.1652L215.092 73.8087L221.032 78.9217L223.479 80.9304L226.449 83.487L228.721 85.313L231.342 87.5043L233.788 89.513L236.758 92.0696L239.03 94.0783L241.126 95.7217L242 96.6348L241.825 97L234.487 95.1739L229.419 94.0783L224.527 92.9826L219.984 92.0696L214.043 90.7913L208.627 89.513L197.794 87.1391L190.28 85.6783L186.087 84.7652L182.068 84.0348L176.302 82.7565L171.584 81.8435L167.74 80.9304L163.896 80.3826L161.974 80.2H156.383L152.189 80.9304L146.423 82.9391L146.248 82.7565L146.074 68.1478V59.0174L144.326 60.4783L142.055 62.487L139.084 64.8609L136.638 67.0522L131.746 71.0696L126.504 75.4522L124.058 77.4609L122.66 78.7391L121.786 79.6522L121.437 80.2L120.738 79.8348L119.515 78.7391L117.418 77.0957L114.972 75.087L113.05 73.4435L110.254 71.0696L108.507 69.6087L106.061 67.6L100.469 62.8522L98.722 61.3913L96.2758 59.2L95.5769 58.6522L95.4022 82.9391L92.257 81.8435L90.1603 80.9304L88.5877 80.5652L84.9184 80.2H80.026L75.6578 80.7478L67.7949 82.3913L63.0773 83.3043L34.2469 89.3304L23.5884 91.7043L16.9487 93.1652L0.873646 96.8174L0 97L0.349458 96.2696L2.62094 94.4435L5.59134 91.887L8.03755 89.8783L10.6585 87.687L13.1047 85.6783L15.9004 83.3043L18.3466 81.2957L21.1422 78.9217L23.5884 76.913L26.3841 74.5391L28.6556 72.5304L31.1018 70.5217L33.3733 68.513L35.8195 66.5043L38.091 64.4957L41.935 61.2087L44.2065 59.2L46.6527 57.3739L47.5264 57.1913L49.2736 58.287L52.5935 60.8435L56.2628 63.7652L58.709 65.5913L61.8542 67.9652L64.9993 70.5217L65.8729 71.2522V71.8L60.9805 72.8957L55.7386 74.3565L54.6903 74.9043L51.1957 78.5565L49.7978 79.8348L47.7011 81.8435L45.9538 83.3043L45.4296 84.0348L49.7978 82.9391L54.6903 81.8435L76.1819 76.3652L80.2007 75.4522L80.3755 34ZM47.5264 64.8609L45.4296 66.5043L43.6823 68.1478L41.7603 69.7913L36.5184 74.5391L34.5964 76.1826L32.6744 78.0087L26.9083 82.9391L25.161 84.5826L22.7148 86.5913L20.7928 88.4174L19.3949 89.6957L18.8708 90.2435V90.6087L21.317 90.2435L28.4809 88.7826L30.4029 88.2348L32.3249 86.7739L34.7711 84.5826L36.5184 82.9391L38.4404 81.2957L41.0614 78.9217L42.9834 77.2783L44.7307 75.6348L46.6527 73.9913L49.0989 71.8L51.8946 69.4261L52.5935 68.8783L52.244 68.1478L49.7978 66.3217L47.8758 64.8609H47.5264ZM194.648 65.0435L192.552 66.3217L190.979 67.6L189.581 68.513L190.455 69.4261L192.901 71.6174L194.823 73.2609L197.444 75.6348L199.366 77.2783L201.812 79.4696L203.56 80.9304L205.831 82.9391L207.753 84.5826L210.199 86.7739L211.947 88.0522L213.17 88.6L221.207 90.2435H222.955L222.605 89.513L220.508 87.3217L218.586 85.6783L216.664 83.8522L214.742 82.2087L212.121 79.8348L209.675 77.8261L207.404 75.8174L205.482 74.1739L203.035 71.9826L200.764 69.9739L198.842 68.1478L196.396 66.1391L194.823 65.0435H194.648Z" fill="#fff"/>
<path d="M121.219 0.893555L122.436 1.06738L134.43 9.06348L138.254 11.6709L141.73 14.1045L144.338 15.8428L151.812 20.8838L154.594 22.7959L158.244 25.2295L161.199 27.3154L162.59 28.3584V28.7061L160.852 29.5752L151.986 33.3994L147.814 35.1377L143.816 36.876L139.123 38.7881L131.301 41.917L127.998 43.3076L125.217 44.3506L123.305 45.2197L121.74 45.7412L120.002 45.3936L116.699 43.8291L110.615 41.3955L106.965 39.8311L99.1426 36.7021L92.8848 34.0947L89.582 32.7041L84.8887 30.6182L81.0645 28.8799L80.7168 28.3584L82.6289 26.9678L85.0625 25.4033L92.5371 20.3623L96.709 17.5811L98.9688 16.0166L102.445 13.7568L107.312 10.4541L110.615 8.19434L116.004 4.54395L119.307 2.28418L121.219 0.893555ZM121.393 10.6279L120.523 11.3232L118.611 12.54L116.178 14.2783L113.396 16.1904L105.748 21.4053L101.75 24.1865L99.6641 25.5771L96.8828 27.4893L95.3184 28.3584L95.8398 28.8799L100.359 30.9658L101.576 31.1396L103.662 29.749L106.617 27.6631L109.746 25.4033L111.832 24.0127L114.961 21.7529L118.785 19.1455L121.393 17.4072L122.262 17.5811L124.695 19.1455L128.693 21.9268L132.344 24.3604L138.254 28.5322L140.514 30.2705L141.904 31.3135L142.773 31.1396L147.814 28.8799L147.988 28.3584L146.076 27.1416L143.99 25.5771L134.604 19.3193L132.17 17.5811L127.998 14.7998L125.564 13.0615L121.914 10.6279H121.393Z" fill="#fff"/>
<path d="M96.8828 81.2021L98.6211 81.5498L100.707 82.4189L103.488 83.2881L106.443 84.3311L110.268 85.7217L112.701 86.5908L116.004 87.8076L118.438 88.3291L120.002 88.5029H124L126.955 87.9814L130.432 86.7646L133.561 85.7217L136.342 84.6787L145.729 81.376L146.25 81.5498L144.859 82.4189L142.773 83.6357L139.123 85.8955L132.865 90.0674L130.432 91.6318L125.217 95.1084L122.957 96.499L121.566 97.1943L118.438 95.2822L115.83 93.5439L109.225 89.3721L101.75 84.5049L97.752 82.0713L96.8828 81.2021Z" fill="#fff"/>
</svg>
